<?xml version="1.0" encoding="utf-8"?>
<!-- Generator: Adobe Illustrator 16.0.0, SVG Export Plug-In . SVG Version: 6.00 Build 0)  -->
<!DOCTYPE svg PUBLIC "-//W3C//DTD SVG 1.1//EN" "http://www.w3.org/Graphics/SVG/1.1/DTD/svg11.dtd">
<svg version="1.1" id="Layer_1" xmlns="http://www.w3.org/2000/svg" xmlns:xlink="http://www.w3.org/1999/xlink" x="0px" y="0px"
	 width="1024px" height="1024px" viewBox="0 0 1024 1024" enable-background="new 0 0 1024 1024" xml:space="preserve">
<rect y="3" fill="none" width="1024" height="1024"/>
<g>
	<path d="M777.398,679.251c0.659-3.682-1.667-9.263-4.52-11.939c-7.504-7.046-10.818-15.657-12.647-25.281
		c-0.448-2.344-0.742-5.262-3.871-5.318c-3.604-0.056-4.628,3.045-5.413,5.854c-2.606,9.357-5.199,18.597-5.97,28.479
		c-0.771,9.838-5.347,20.292-15.429,22.507c-13.902,3.055-34.685-26.396-28.231-38.857c4.177-8.068,3.538-11.803-6.201-14.129
		c-17.013-4.064-37.024,3.878-43.387,20.148c-3.09,7.896-6.817,9.792-12.423,4.624c-10.963-10.11-19.154-4.558-25.289,4.526
		c-9.718,14.406-26.401,22.335-34.116,38.608c-2.05,4.33-6.982,8.317-12.837,8.832c-16.123,1.412-29.051,10.777-43.205,17.094
		c-4.134,1.843-8.744,4.295-9.367,8.64c-2.877,20.054-6.439,40.178-6.938,60.344c-0.351,14.203,6.804,28.693-3.266,42.178
		c-2.164,2.904-6.922,5.438-3.489,9.824c3.42,4.368,8.752,7.62,14.091,5.479c16.698-6.682,35.267-7.813,51.26-14.494
		c18.242-7.616,36.355-12.329,55.562-15.626c13.04-2.242,22.73,5.172,24.275,13.408c4.074,21.683,12.259,8.898,20.009,4.32
		c2.018-1.191,3.776-2.8,5.654-4.219c-2.544,7.263-1.5,13.594-0.582,20.243c0.693,5.003,5.809,7.435,5.424,13.128
		c-0.904,13.288,5.921,19.661,19.101,19.22c3.251-0.112,5.956-2.257,9.803-0.687c15.044,6.131,29.664-2.933,38.289-10.283
		c18.103-15.436,32.712-35.29,48.765-53.305c18.036-20.24,27.657-52.654,9.726-83.141
		C790.029,728.787,772.424,707.335,777.398,679.251z"/>
	<path d="M803.766,587.415c0.435-0.673-0.623-3.163-1.625-3.787c-9.915-6.173-14.561-18.284-26.273-22.56
		c-14.122-5.156-28.56-9.949-41.792-16.925c-10.658-5.62-17.107-1.913-23.326,5.638c-2.484,3.013-4.218,7.549-8.724,6.379
		c-5.563-1.446-6.965-6.926-6.355-11.754c1.11-8.85-4.688-12.22-10.867-15.229c-4.828-2.351-8.107,1.833-11.751,4.04
		c-1.815,1.096-3.504,3.254-1.871,4.624c11.656,9.782,12.144,30.312,31.56,32.646c3.805,0.455,7.816,1.422,11.141,3.244
		c10.182,5.581,17.798,12.645,10.35,25.505c-1.22,2.112-2.758,6.159-0.69,5.946c12.89-1.339,19.974,10.955,31.366,12.482
		c4.4,0.588,6.433-1.787,8.759-5.729c10.171-17.198,21.098-17.496,30.424,0.841c7.057,13.86,18.071,15.51,31.069,17.703
		c-0.603-6.923-5.115-9.991-8.331-14.031C810.072,607.97,793.129,603.871,803.766,587.415z"/>
	<path d="M551.625,553.196c1.77-7.368,4.232-14.052,8.142-20.968c3.409-6.016,10.129-14.141,6.751-22.863
		c-4.063-10.486-7.952-18.965,1.977-29.966c8.934-9.904-7.351-11.845-11.207-17.829c-4.121-6.401-6.977,2.743-7.999,5.444
		c-4.4,11.597-14.735,18.958-23.271,24.977c-8.121,5.731-12.045,20.131-26.902,16.684c-4.537-1.051-5.309,5.847-5.091,12.634
		c3.378,9.361,5.676,22.033,12.455,31.499c2.764,3.854,14.024,6.265,22.369,5.528c2.701-0.23,5.851,0.891,8.304,2.26
		C545.945,565.532,549.681,561.321,551.625,553.196z"/>
	<path d="M419.029,494.055c-11.145-8.254-17.027-24.959-37.057-21.946c4.194,5.767,7.109,11.46,11.51,15.548
		c15.989,14.83,25.82,34.131,33.948,53.225c7.589,17.822,19.776,29.762,33.5,41.499c4.015,8.055,7.729,16.315,18.022,18.246
		c16.483,3.09,32.953,6.281,49.408,9.501c6.086,1.194,7.032-2.376,5.47-6.628c-2.277-6.167-25.015-14.918-31.728-12.736
		c-8.744,2.838-29.79-7.539-34.568-17.051c0.936-5.581,1.881-11.166,2.827-16.746c5.091-1.255,5.118-3.98,3.566-8.57
		c-2.978-8.772-10.507-4.204-15.724-6.211c-6.685-13.058-11.572-27.324-24.759-35.991c-1.146-0.757-1.195-3.185-1.692-4.93
		C424.926,503.493,422.984,496.99,419.029,494.055z"/>
	<path d="M431.754,501.265c0.045-0.014,0.084-0.021,0.126-0.035c-0.014-0.063-0.028-0.129-0.042-0.192
		c-0.049,0.014-0.084,0.01-0.133,0.024C431.726,501.125,431.736,501.202,431.754,501.265z"/>
	<path d="M624.707,220.343c7.088,5.161,4.201-5.192,6.293-8.398c0.658-1.009,2.119-2.137,3.194-2.12
		c10.872,0.168,17.056-8.447,23.911-14.266c5.984-5.084,13.541-1.167,19.676-7.214c3.402-3.356,5.893,0.063,6.093-6.226
		c0.312-10.006-6.058-18.481-5.819-26.325c2.473-10.692-3.283-16.81-6.854-23.508c-1.786-3.349-2.393-10.43-8.408-7.207
		c-4.827,2.593-6.516,8.401-3.864,14.14c2.231,4.824,5.179,9.372,6.892,14.354c1.044,3.048-19.174,24.906-22.598,24.524
		c-15.92-1.812-21.08,9.13-28.56,20.366C604.748,213.357,619.47,216.538,624.707,220.343z"/>
	<path d="M591.869,523.998c4.288-0.528,8.85-1.821,12.879-0.921c9.662,2.161,14.179-3.265,17.847-11.624
		c-10.16,3.037-20.194,2.603-30.271,1.727c-6.908-0.592-11.642,2.979-12.851,9.337c-3.313,17.43-10.258,34.618-4.498,52.867
		c0.715,2.267,0.364,5.276,3.227,5.894c3.956,0.857,4.558-2.445,5.364-5.242c1.92-6.621-0.231-14.076,5.496-24.671
		c0.333,14.073,4.74,21.806,13.293,27.292c4.929-7.719-0.396-13.779-1.664-20.068c-1.598-7.952-8.591-16.55,4.834-21.076
		c0.988-0.33,1.773-3.542,1.416-5.14c-0.82-3.703-3.784-1.867-5.9-1.43c-2.357,0.491-4.606,1.511-6.943,2.162
		c-3.854,1.079-8.373,2.187-9.656-2.964C582.988,524.286,588.142,524.461,591.869,523.998z"/>
	<path d="M624.791,463.256c0.2-2.505,1.107-4.155,3.542-5.662c8.679-5.363,2.635-12.269,0.242-17.416
		c-3.465-7.456-7.81-0.414-11.789,0.932c-2.67,0.896-5.459,1.793-8.24,1.951c-11.064,0.634-14.722,7.102-14.834,20.327
		c10.553-14.024,12.15-13.863,18.464-0.76c1.513,3.136,3.244,6.11,7.305,6.145C623.096,468.802,624.528,466.549,624.791,463.256z"/>
	<path d="M648.499,110.141c-2.382,3.956,4.779,10.276,5.042,9.971c8.229-9.656,27.484-2.6,30.021-20.271
		c-12.382,5.238-22.527-1.125-36.689-11.13C651.021,98.601,652.063,104.238,648.499,110.141z"/>
	<path d="M581.025,389.956c-6.8,4.415-4.655,9.873,0.47,12.427c8.615,4.292,3.108-3.041,3.718-5.504
		c1.219-4.968,4.092-1.748,6.555-1.289c4.138,0.764,10.107,6.835,12.017-0.011c1.878-6.723-6.05-6.923-10.94-8.117
		c-1.844-0.452-3.826-0.337-5.746-0.48c-1.913-6.39-5.066-12.819,0.23-19.087c3.945-4.673,0.348-8.986-0.272-13.541
		c-0.571-4.229-1.384-8.118-6.355-7.785c-5.476,0.371-6.517,5.356-6.934,9.571C571.889,375.171,572.016,375.182,581.025,389.956z"/>
	<path d="M597.433,414.792c-1.156-1.99-4.771-1.254-5.91,1.29c-0.655,1.458-0.172,3.784,0.515,5.42
		c1.094,2.596,3.427,4.782,4.078,7.427c1.101,4.411,1.233,9.315,7.838,6.394c5.692-2.508,14.017-1.524,15.281-12.794
		C615.458,413.485,602.4,423.354,597.433,414.792z"/>
	<path d="M568.256,306.353c6.821-0.151,3.987-8.521,6.817-12.262c0.154-4.726,0.379-10.752-4.743-10.749
		c-6.188,0.003-6.986,7.255-8.401,11.96C560.384,300.418,563.425,306.465,568.256,306.353z"/>
	<path d="M512.256-0.593C229.937-0.593,0.253,229.091,0.253,511.41c0,282.316,229.684,511.997,512.003,511.997
		c282.316,0,511.997-229.681,511.997-511.997C1024.253,229.091,794.572-0.593,512.256-0.593z M512.256,991.119
		c-264.518,0-479.715-215.197-479.715-479.709c0-83.662,21.55-162.382,59.359-230.927c1.587,0,3.167-0.039,4.719-0.081
		c22.913-0.624,46.869-7.14,62.873,17.191c1.233,1.875,3.65,3.367,5.83,4.134c3.504,1.233,4.765,2.284,2.48,6.075
		c-3.524,5.83,1.43,8.965,5.073,11.905c4.505,3.64,9.088,2.095,13.438-0.914c2.131-1.475,3.662-5.452,7.116-2.673
		c2.399,1.927,3.009,4.834,2.235,7.957c-3.129,12.574,1.313,24.118,5.861,35.252c9.929,24.317,20.758,48.271,28.658,73.383
		c1.703,5.406,5.956,12.322,10.629,8.065c7.249-6.601,19.687-10.889,15.451-26.237c-3.266-11.811,3.117-24.633-0.225-37.256
		c-0.949-3.57,3.71-6.45,6.404-9.267c15.363-16.081,32.855-30.333,43.303-50.653c1.878-3.661,6.146-4.428,9.621-6.142
		c15.324-7.561,28.385-9.561,32.911,12.104c0.168,0.82,1.128,1.643,1.923,2.123c13.591,8.202,18.316,22.355,22.553,36.058
		c2.726,8.808,5.072,9.375,11.288,3.686c4.046-3.707,8.982-3.868,10.205,1.92c3.948,18.691,16.995,35.217,12.084,56.199
		c-1.798,7.708-5.171,16.778,3.37,24.381c15.783,14.059,17.56,34.379,22.135,53.344c6.912-2.147,9.992,4.176,14.806,6.698
		c2.999,1.573,8.874,2.639,6.895-2.238c-5.97-14.725-2.712-33.35-18.841-43.927c-22.282-14.613-24.941-36.215-20.244-60.175
		c1.188-6.068,2.727-7.308,8.451-3.223c8.135,5.812,17.84,8.906,22.541,19.461c3.08,6.909,18.659,4.516,13.117,19.28
		c11.18-2.845,13.544-13.155,21.543-17.041c8.243-4.001,9.862-11.617,8.775-21.073c-2.402-20.884-15.748-34.895-27.992-50.04
		c-9.435-11.667-8.11-22.289,2.705-30.249c10.447-7.687,18.764-4.562,24.986,8.023c3.518-8.934,8.338-15.846,16.042-15.468
		c10.71,0.533,18.601-5.343,27.437-8.85c12.948-5.14,33.829-50.723,27.726-62.568c-8.029-15.583-17.265-30.995-28.567-44.28
		c-7.945-9.337-6.632-14.809,0.61-22.079c2.487-2.491,7.921-4.425,4.652-9.063c-2.263-3.212-7.116-3.864-10.714-2.06
		c-11.33,5.69-18.225-2.652-23.459-9.095c-7.455-9.183,5.791-9.943,9.074-14.532c9.15-12.777,10.805-12.084,17.104,2.743
		c0.949,2.231,1.619,4.625,4.407,5.308c13.671-11.484,15.924-10.847,23.908,6.373c0.956,2.06,2.712,5.101,4.361,5.279
		c13.247,1.465,13.358,14.277,18.775,22.062c3.451,4.958,2.172,12.731,12.262,7.693c9.418-4.701,10.35-9.81,5.357-18.411
		c-4.18-7.207-10.641-11.029-17.164-15.324c-4.281-2.824-12.192-8.811-9.816-10.923c9.81-8.686,5.339-20.94,10.062-30.512
		c2.463-4.996,6.391-5.494,11.033-4.292c8.012,2.078,11.824-2.386,14.186-9.028c7.186-20.184,10.847-39.313,0.416-58.533
		c4.534,0.904,9.05,1.854,13.534,2.887c5.809,8.766,10.805,18.071,15.022,27.93c1.577,3.678,5.627,6.688,9.193,8.997
		c2.838,1.833,7.141,1.857,8.941-1.762c1.965-3.952-2.579-4.106-4.583-5.812c-5.738-4.88-11.961-9.466-14.206-17.192
		c4.915-3.542,8.293,3.812,13.855-0.389c-2.995-2.274-5.955-4.562-8.892-6.87c203.135,55.775,352.827,242.047,352.827,462.649
		C991.965,775.922,776.768,991.119,512.256,991.119z"/>
</g>
</svg>
